<?xml version="1.0" encoding="UTF-8"?>
<svg width="362px" height="40px" viewBox="0 0 362 40" version="1.1" xmlns="http://www.w3.org/2000/svg" xmlns:xlink="http://www.w3.org/1999/xlink">
    <!-- Generator: Sketch 49.3 (51167) - http://www.bohemiancoding.com/sketch -->
    <title>Forerunner_Wordmark_White</title>
    <desc>Created with Sketch.</desc>
    <defs></defs>
    <g id="Page-1" stroke="none" stroke-width="1" fill="none" fill-rule="evenodd">
        <g id="Artboard-2" transform="translate(-16.000000, -211.000000)" fill="#FFFFFF" fill-rule="nonzero">
            <g id="Forerunner_Wordmark_White" transform="translate(16.000000, 211.000000)">
                <path d="M172.502041,36.5443038 C172.098776,36.1431962 171.726531,35.772943 170.95102,34.8781646 C170.051429,33.7674051 169.213878,32.6566456 168.407347,31.5150316 L160.466122,20.8085443 C161.365714,20.6542722 161.862041,20.5308544 163.28898,19.8212025 C166.949388,18.0625 168.283265,15.7792722 168.841633,14.0822785 C169.244898,12.8172468 169.275918,11.5830696 169.275918,11.1511076 C169.275918,4.08544304 163.940408,2.04905063 161.551837,1.43196203 C159.783673,1 157.98449,1 156.216327,1 L139,1 L139,2.26503165 L139.620408,2.26503165 C142.00898,2.4193038 143.001633,2.91297468 143.746122,3.93117089 C144.242449,4.57911392 144.521633,5.31962025 144.583673,6.86234177 C144.645714,7.69541139 144.645714,8.59018987 144.645714,9.39240506 L144.645714,31.5458861 C144.707755,34.6313291 144.645714,36.1740506 143.466939,37.4082278 C142.753469,38.1795886 141.729796,38.5806962 139.620408,38.6732595 L139,38.6732595 L139,40 C144.769796,39.8765823 150.508571,39.8765823 156.154286,40 L156.216327,38.6732595 L155.502857,38.6732595 C152.462857,38.5189873 150.849796,37.6242089 150.570612,34.3536392 C150.508571,33.4280063 150.508571,32.471519 150.508571,31.5458861 L150.508571,21.7958861 L154.044898,21.7958861 L167.321633,39.9691456 C175.262857,39.9691456 171.168163,39.9691456 177,39.9691456 L177,38.6424051 C176.441633,38.5806962 175.666122,38.4264241 174.394286,37.7476266 C173.773878,37.4082278 173.060408,36.9762658 172.502041,36.5443038 Z M150.508571,19.5743671 L150.508571,3.77689873 C151.408163,3.37579114 152.245714,3.06724684 154.23102,3.06724684 C156.898776,3.06724684 159.287347,3.77689873 160.993469,5.99841772 C162.54449,8.03481013 162.54449,10.102057 162.54449,11.0276899 C162.54449,11.8607595 162.54449,14.0514241 161.086531,16.1186709 C159.50449,18.4018987 156.402449,19.9137658 150.508571,19.5743671 Z" id="Shape"></path>
                <path d="M359.394286,37.7476266 C358.773878,37.4082278 358.060408,36.9762658 357.502041,36.5443038 C357.098776,36.1431962 356.726531,35.772943 355.95102,34.8781646 C355.051429,33.7674051 354.213878,32.6566456 353.407347,31.5150316 L345.466122,20.8085443 C346.365714,20.6542722 346.862041,20.5308544 348.28898,19.8212025 C351.949388,18.0625 353.283265,15.7792722 353.841633,14.0822785 C354.244898,12.8172468 354.275918,11.5830696 354.275918,11.1511076 C354.275918,4.08544304 348.940408,2.04905063 346.551837,1.43196203 C344.783673,1 342.98449,1 341.216327,1 L324,1 L324,2.26503165 L324.620408,2.26503165 C327.00898,2.4193038 328.001633,2.91297468 328.746122,3.93117089 C329.242449,4.57911392 329.521633,5.31962025 329.583673,6.86234177 C329.645714,7.69541139 329.645714,8.59018987 329.645714,9.39240506 L329.645714,31.5458861 C329.707755,34.6313291 329.645714,36.1740506 328.466939,37.4082278 C327.753469,38.1795886 326.729796,38.5806962 324.620408,38.6732595 L324,38.6732595 L324,40 C329.769796,39.8765823 335.508571,39.8765823 341.154286,40 L341.216327,38.6732595 L340.502857,38.6732595 C337.462857,38.5189873 335.849796,37.6242089 335.570612,34.3536392 C335.508571,33.4280063 335.508571,32.471519 335.508571,31.5458861 L335.508571,21.7958861 L339.075918,21.7958861 L352.352653,39.9691456 C354.4,39.9074367 356.416327,39.8457278 358.401633,39.9074367 C359.611429,39.9074367 360.790204,39.9074367 362,39.9691456 L362,38.6424051 C361.472653,38.5806962 360.697143,38.4264241 359.394286,37.7476266 Z M335.508571,19.5743671 L335.508571,3.77689873 C336.408163,3.37579114 337.245714,3.06724684 339.23102,3.06724684 C341.898776,3.06724684 344.287347,3.77689873 345.993469,5.99841772 C347.54449,8.03481013 347.54449,10.102057 347.54449,11.0276899 C347.54449,11.8607595 347.54449,14.0514241 346.086531,16.1186709 C344.53551,18.4018987 341.402449,19.9137658 335.508571,19.5743671 Z" id="Shape"></path>
                <path d="M0,1 L0,2.26503165 L0.552253116,2.26503165 C3.55896453,2.48101266 5.15436242,3.31408228 5.43048897,6.5846519 C5.55321189,7.51028481 5.49185043,8.46677215 5.55321189,9.39240506 L5.55321189,31.5458861 C5.49185043,33.5822785 5.76797699,36.5134494 3.80441035,37.8401899 C3.16011505,38.2721519 2.20901246,38.6115506 0.552253116,38.6732595 L0,38.6732595 L0,40 C2.20901246,39.9382911 4.3873442,39.9382911 6.65771812,39.8765823 C10.2166826,39.8765823 13.8063279,39.9382911 17.3652924,40 L17.4266539,38.6732595 L16.3221477,38.6732595 C14.5733461,38.5498418 13.5302013,38.2412975 12.8552253,37.7476266 C11.4745925,36.6368671 11.3825503,34.8781646 11.3825503,31.5458861 L11.3825503,20.3457278 L19.451582,20.3457278 C21.9674017,20.3457278 23.1332694,20.3457278 24.1764142,21.3330696 C24.5752637,21.6724684 24.8820709,22.1044304 25.0661553,22.5981013 C25.3422819,23.2151899 25.557047,24.5727848 25.557047,26.3006329 L27.029722,26.3006329 C27.029722,24.9738924 26.9683605,23.5237342 26.9683605,22.1661392 C26.906999,18.8030063 26.9683605,15.4398734 27.029722,12.1075949 L25.557047,12.1075949 C25.557047,14.2056962 25.4343241,17.0134494 22.7957814,17.7539557 C21.9674017,17.9699367 21.1390221,18.0316456 19.451582,18.0316456 L11.3825503,18.0316456 L11.3825503,3.34493671 L17.4266539,3.34493671 C18.6232023,3.34493671 19.8504314,3.34493671 21.0469799,3.40664557 C24.6059444,3.4375 26.1399808,3.4375 27.7353787,4.48655063 C29.177373,5.41218354 29.6069032,6.64636076 30.0364334,8.18908228 C30.2511985,8.89873418 30.4352828,9.57753165 30.527325,10.2254747 L32,10.102057 L31.2329818,1 L0,1 Z" id="Shape"></path>
                <path d="M65.9855915,8.54517611 C62.6378918,3.12404288 57.9695399,1.37825421 55.7275025,0.704441041 C53.4547523,0.0612557427 51.765546,0 50.7520222,0 C47.9878665,0 41.5688827,0.980091884 36.9005308,7.22817764 C34.1363751,10.8422665 33,14.9464012 33,19.4486983 C33,32.7718224 41.0774772,37.7641654 46.2679474,39.295559 C48.479272,39.9387443 50.0763397,40 51.0591507,40 C55.7889282,40 59.1980536,37.9785605 60.6415571,37.0290965 C64.542088,34.3950995 67.3983822,30.229709 68.4426188,25.6661562 C69.0875885,22.8177642 68.9954499,20.245023 68.9954499,19.2036753 C68.8111729,15.4058193 68.0433519,11.8529862 65.9855915,8.54517611 Z M60.3344287,31.914242 C59.6280334,33.2312404 57.6316987,36.2940276 53.3933266,37.3353752 C52.2876643,37.611026 51.7962588,37.611026 51.182002,37.611026 C48.663549,37.611026 46.1143832,36.5696784 44.2408999,34.8238897 C41.5381699,32.1898928 40.3403691,28.2388974 39.9103893,24.6248086 C39.572548,22.143951 39.5111223,18.4686064 39.5111223,18.101072 C39.5111223,10.3828484 41.9374368,6.43185299 44.8858696,4.34915773 C46.6057887,3.15467075 48.6328362,2.38897397 50.7213094,2.38897397 C51.8883974,2.38897397 54.2532861,2.60336907 56.6488878,4.41041348 C61.3786653,7.93261868 61.9314965,14.8851455 62.0850607,16.0796325 C62.207912,17.2434916 62.2386249,18.3767228 62.3000506,19.4793262 C62.6378918,25.8192956 61.8086451,29.2189893 60.3344287,31.914242 Z" id="Shape"></path>
                <path d="M134.877551,33.4640316 C133.408163,35.7762846 131.479592,37.3177866 126.153061,37.5644269 L118.867347,37.5644269 C117.489796,37.5027668 116.785714,37.5644269 116.173469,37.0711462 C115.561224,36.4545455 115.683673,35.4679842 115.683673,33.9264822 L115.683673,23.8758893 C115.683673,22.8893281 115.683673,21.5019763 115.806122,21.1628458 C116.020408,20.4537549 117.244898,20.515415 117.826531,20.515415 L124.561224,20.515415 C126.030612,20.5770751 127.530612,20.5770751 128.632653,21.7794466 C129.459184,22.7043478 129.673469,23.7525692 129.673469,26.0956522 L131.05102,26.1573123 L131.05102,12.715415 L129.673469,12.715415 L129.673469,13.486166 C129.673469,15.3051383 128.908163,17.1241107 127.102041,17.7407115 C126.336735,18.0181818 124.408163,18.172332 122.234694,18.172332 L117.183673,18.172332 C116.693878,18.172332 116.081633,18.2339921 115.867347,17.7715415 C115.591837,17.3399209 115.714286,16.7849802 115.714286,16.6616601 L115.714286,5.87114625 C115.714286,4.6687747 115.591837,3.77470356 116.326531,3.43557312 C116.602041,3.31225296 116.969388,3.343083 117.704082,3.37391304 C119.510204,3.43557312 124.928571,3.37391304 124.928571,3.37391304 C126.857143,3.37391304 128.05102,3.37391304 129.704082,4.29881423 C131.234694,5.19288538 131.908163,6.27193676 132.397959,7.84426877 C132.55102,8.46086957 132.795918,9.01581028 132.887755,10.2798419 L134.326531,10.2798419 L133.714286,1 L104.387755,1 L104.387755,2.26403162 L104.938776,2.26403162 C106.867347,2.38735178 107.785714,2.75731225 108.489796,3.37391304 C108.979592,3.8055336 109.193878,4.20632411 109.316327,4.42213439 C109.959184,5.74782609 109.867347,7.99841897 109.867347,9.38577075 L109.867347,31.5217391 C109.867347,34.2347826 109.928571,35.344664 109.255102,36.6086957 C108.520408,37.9652174 107.418367,38.5509881 106.438776,38.5509881 C105.520408,38.5509881 103.77551,38.5201581 100.530612,34.8822134 C99.5816327,33.8339921 98.3265306,31.9841897 97.5,30.8126482 L90.1836735,20.7928854 C91.0714286,20.6387352 91.5612245,20.515415 92.9693878,19.8063241 C96.5816327,18.0490119 97.8979592,15.7675889 98.4489796,14.0719368 C98.8469388,12.8079051 98.877551,11.5747036 98.877551,11.143083 C98.877551,4.08300395 93.6122449,2.04822134 91.255102,1.43162055 C89.5102041,1 87.7346939,1 85.9897959,1 L69,1 L69,2.26403162 L69.6122449,2.26403162 C71.9693878,2.41818182 72.9489796,2.91146245 73.6836735,3.92885375 C74.1734694,4.57628458 74.4489796,5.31620553 74.5102041,6.85770751 C74.5714286,7.69011858 74.5714286,8.58418972 74.5714286,9.38577075 L74.5714286,31.5217391 C74.6326531,34.6047431 74.5714286,36.1462451 73.4081633,37.3794466 C72.7040816,38.1501976 71.6938776,38.5509881 69.6122449,38.6434783 L69,38.6434783 L69,39.96917 C74.6938776,39.8458498 80.3571429,39.8458498 85.9285714,39.96917 L85.9897959,38.6434783 L85.2857143,38.6434783 C82.2857143,38.4893281 80.6938776,37.5952569 80.4183673,34.3272727 C80.3571429,33.4023715 80.3571429,32.4466403 80.3571429,31.5217391 L80.3571429,21.8411067 L83.877551,21.8411067 L96.9795918,40 L134.816327,40 L138,30.0110672 L136.622449,29.5794466 C136.408163,30.3193676 135.918367,31.7683794 134.877551,33.4640316 Z M80.3265306,19.6213439 L80.3265306,3.83636364 C81.2142857,3.43557312 82.0408163,3.12727273 84,3.12727273 C86.6326531,3.12727273 88.9897959,3.83636364 90.6734694,6.05612648 C92.2040816,8.09090909 92.2040816,10.1565217 92.2040816,11.0814229 C92.2040816,11.913834 92.2040816,14.1027668 90.7653061,16.1683794 C89.2040816,18.4498024 86.1428571,19.9604743 80.3265306,19.6213439 Z" id="Shape"></path>
                <path d="M247.083333,9.37663622 C247.083333,6.3416231 247.144444,4.55096535 248.427778,3.51906089 C249.252778,2.851358 250.566667,2.76030761 251.147222,2.76030761 C252.125,2.79065774 254.019444,2.88170814 255.883333,4.52061522 C256.647222,5.18831811 257.258333,6.12917218 257.441667,6.3416231 L257.441667,31.07698 C257.441667,34.0512929 257.380556,35.6902 256.280556,36.843505 C255.638889,37.541558 254.538889,37.99681 252.491667,38.0878604 L252.063889,38.0878604 L252.063889,39.392916 C254.905556,39.3322157 257.808333,39.2715155 260.588889,39.2715155 C262.330556,39.3322157 264.102778,39.3322157 265.783333,39.392916 L265.783333,38.0878604 L265.141667,38.0878604 C263.95,38.0271601 262.452778,37.8754094 261.536111,36.9345554 C260.069444,35.5687995 260.283333,33.2925396 260.283333,32.8676378 C260.222222,32.2606352 260.222222,31.6839827 260.222222,31.07698 L260.222222,9.01243464 L286.622222,39.8785181 L286.622222,9.31593596 C286.622222,7.88947979 286.561111,5.79532073 287.05,4.49026509 C287.6,3.03345879 288.852778,2.63890709 289.341667,2.48715643 C289.983333,2.33540577 291.45,2.27470551 291.45,2.27470551 L292,2.27470551 C293.925,2.39610604 294.841667,2.76030761 295.544444,3.36731024 C296.033333,3.79221207 296.247222,4.18676378 296.369444,4.3992147 C297.011111,5.70427034 296.919444,7.91982992 296.919444,9.28558582 L296.919444,31.07698 C296.919444,33.7477916 296.980556,34.8403963 296.308333,36.0847517 C295.391667,37.7540089 293.741667,37.99681 292,38.0878604 L291.45,38.0878604 L291.45,39.392916 L321.822222,39.392916 L325,29.5594735 L323.625,29.1345716 C323.472222,29.8933249 322.983333,31.3197811 321.913889,32.9890383 C320.447222,35.2652982 318.522222,36.7828047 313.205556,37.0256058 L305.933333,37.0256058 C304.558333,36.9649055 303.855556,37.0256058 303.244444,36.5400037 C302.633333,35.933001 302.755556,34.9617968 302.755556,33.4442903 L302.755556,23.5197974 C302.755556,22.5485932 302.755556,21.1828373 302.877778,20.8489858 C303.091667,20.1509328 304.313889,20.2116331 304.894444,20.2116331 L311.616667,20.2116331 C313.083333,20.2723333 314.580556,20.2723333 315.680556,21.4559884 C316.505556,22.3664924 316.719444,23.3983968 316.719444,25.7050068 L318.094444,25.7657071 L318.094444,12.5330499 L316.719444,12.5330499 L316.719444,13.2918031 C316.719444,15.0824609 315.955556,16.8731186 314.152778,17.4801213 C313.388889,17.7532724 311.463889,17.9050231 309.294444,17.9050231 L304.252778,17.9050231 C303.763889,17.9050231 303.152778,17.9657234 302.938889,17.5104714 C302.663889,17.0855696 302.786111,16.8124184 302.786111,16.0536651 L302.786111,5.79532073 C302.786111,4.61166562 302.694444,3.8225622 303.397222,3.51906089 C303.672222,3.39766037 303.977778,3.36731024 304.772222,3.36731024 L311.983333,3.36731024 C313.908333,3.36731024 315.1,3.36731024 316.75,4.27781417 C318.277778,5.15796798 318.95,6.22022257 319.438889,7.76807926 C319.591667,8.37508189 319.836111,8.92138425 319.927778,10.1657396 L321.363889,10.1657396 L320.752778,1.03035013 L291.480556,1.03035013 C287.05,1.12140052 282.619444,1.12140052 278.25,1.03035013 L278.25,2.27470551 L279.35,2.27470551 C282.527778,2.33540577 283.658333,3.45836063 283.902778,6.55407401 C283.963889,7.46457795 283.963889,8.40543202 283.963889,9.28558582 L283.963889,27.8598661 L261.2,1 L238.711111,1 L238.711111,2.24435538 L239.811111,2.24435538 C242.988889,2.30505564 244.119444,3.4280105 244.363889,6.52372388 C244.425,7.43422782 244.425,8.37508189 244.425,9.25523569 L244.425,27.829516 L221.630556,1 L198.5,1 L198.5,2.24435538 L199.141667,2.24435538 C199.752778,2.24435538 200.027778,2.24435538 201.005556,2.51750656 C201.983333,2.72995748 202.716667,3.12450919 203.297222,3.97431286 C204.183333,5.34006877 204.122222,7.82877953 204.122222,9.25523569 L204.122222,24.9159034 C204,27.7991659 204,28.982821 203.572222,30.4699774 C202.808333,33.2318394 201.005556,35.2956483 198.377778,36.4489533 C196.086111,37.4808577 193.886111,37.541558 193.030556,37.541558 C188.661111,37.541558 184.322222,35.5384493 182.977778,31.07698 C182.366667,29.1649218 182.488889,26.9493622 182.488889,26.4637601 L182.488889,9.28558582 C182.488889,7.16107664 182.275,4.45991496 184.077778,3.15485932 C185.269444,2.33540577 187.133333,2.27470551 187.408333,2.27470551 L187.897222,2.27470551 L187.897222,1 C182.275,1.12140052 176.622222,1.12140052 171,1 L171,2.24435538 L171.55,2.24435538 C172.711111,2.24435538 174.177778,2.30505564 175.155556,3.15485932 C176.408333,4.18676378 176.469444,6.03812178 176.469444,9.25523569 L176.469444,25.280105 C176.469444,27.4653144 176.530556,29.7415743 177.233333,31.8053832 C177.997222,34.0209428 180.411111,37.9057596 186.216667,39.3625659 C188.508333,39.9695685 190.861111,39.9999186 191.625,39.9999186 C193.763889,39.9999186 203.938889,40.1213192 206.352778,30.9859297 C206.780556,29.3166724 206.841667,28.2240677 206.963889,25.0069538 L206.963889,9.28558582 C206.963889,6.06847191 207.025,4.18676378 208.4,3.09415905 C209.286111,2.39610604 210.661111,2.30505564 211.272222,2.27470551 C212.311111,2.30505564 214.327778,2.42645617 216.283333,4.12606352 C217.108333,4.82411653 217.719444,5.856021 217.933333,6.06847191 L217.933333,31.07698 C217.933333,34.0512929 217.872222,35.6902 216.772222,36.843505 C216.130556,37.541558 215.030556,37.99681 212.983333,38.0878604 L212.555556,38.0878604 L212.555556,39.392916 C215.397222,39.3322157 218.3,39.2715155 221.080556,39.2715155 C222.822222,39.3322157 224.594444,39.3322157 226.275,39.392916 L226.275,38.0878604 L225.633333,38.0878604 C224.441667,38.0271601 222.944444,37.8754094 222.027778,36.9345554 C220.561111,35.5687995 220.775,33.2925396 220.775,32.8676378 C220.713889,32.2606352 220.713889,31.6839827 220.713889,31.07698 L220.713889,9.01243464 L247.144444,39.8785181 L247.083333,9.37663622 Z" id="Shape"></path>
            </g>
        </g>
    </g>
</svg>